<svg xmlns="http://www.w3.org/2000/svg" viewBox="2196.58 -929.299 84.667 96.959"><defs><style>.a{fill:#298aca}.b{fill:#fff}</style></defs><path class="a" d="M2222.149-834.177a15.062 15.062 0 0 0 1.724-.312 14.693 14.693 0 0 0 1.855-.594l11.24-4.19a30.124 30.124 0 0 0 13.677-1.895l12.147 1.28a14.7 14.7 0 0 0 1.948.11 15.086 15.086 0 0 0 1.605-.108 14.89 14.89 0 0 0 3.65-28.634 13.988 13.988 0 0 0-8.641-25.684 18.85 18.85 0 0 0-1.004-11.06l-.091-.244a13.564 13.564 0 0 0-13.099-20.924 13.751 13.751 0 0 0-8.509 4.408 21.569 21.569 0 0 0-5.24-.01 21.188 21.188 0 0 0-5.227 1.347 13.707 13.707 0 0 0-21.321 12.895 13.471 13.471 0 0 0 4.691 8.672q-.027.365-.032.725a21.2 21.2 0 0 0 1.999 10.184 13.988 13.988 0 0 0-2.869 25.873q.19.869.439 1.725a14.89 14.89 0 0 0 11.051 26.457z"/><path class="b" d="M2237.15-898.138c.007-.621 1.328-1.06 2.513-.158 1.296.988-.265 2.848-.548 2.755-.576-.179-.158-1.055-.44-1.503-.466-.73-1.535-.271-1.525-1.094zm11.387-6.546a.642.642 0 1 1 .017-.002zm-23.613 2.9a.642.642 0 1 1 .017-.003zm46.8 39.657a10.363 10.363 0 0 1-5.943 17.722 9.844 9.844 0 0 1-2.5-.004l-13.31-1.375a25.589 25.589 0 0 1-13.577 1.894l-12.283 4.578a9.906 9.906 0 0 1-2.52.647 10.358 10.358 0 0 1-6.773-19.058l1.713-1.08a24.76 24.76 0 0 1-1.866-6.799 9.452 9.452 0 1 1 4.964-18.24 25.472 25.472 0 0 1 1.827-2.14 11.381 11.381 0 0 1-1.555-1.178c-2.731-2.48-3.998-6.12-3.875-11.162a15 15 0 0 1 .405-3.02 9.037 9.037 0 0 1 2.882-17.15 9.18 9.18 0 0 1 8.093 3.129 17.051 17.051 0 0 1 13.221-1.725 9.175 9.175 0 0 1 17.248 2.987 9.026 9.026 0 0 1-2.998 7.855 18.327 18.327 0 0 1 1.19 2.52c1.656 4.457 1.514 8.348-.441 11.564a11.591 11.591 0 0 1-1.926 2.37 25.441 25.441 0 0 1 2.79 2.085 9.444 9.444 0 1 1 8.554 16.457 24.771 24.771 0 0 1-.122 5.872l2.678.78a10.312 10.312 0 0 1 4.138 2.468zm-27.245-41.853a8.581 8.581 0 0 1 3.188 2.906c.094-.012.184.005.277-.006a3.108 3.108 0 1 0-3.47-2.899zm-13.599 7.82c.292 2.375 4.543 4.724 6.148 4.527s5.161-3.504 4.87-5.88-2.886-3.098-5.927-2.725-5.367 1.701-5.075 4.076zm-10.181-4.707a3.108 3.108 0 0 0 3.463 2.706 3.073 3.073 0 0 0 .971-.296 8.56 8.56 0 0 1 1.745-2.847 3.041 3.041 0 0 0-.006-.321 3.108 3.108 0 1 0-6.17.758zm41.275 32.45c-.95-7.735-6.757-13.779-14.354-16.026a31.661 31.661 0 0 1-18.461 2.266c-6.828 4.014-11 11.293-10.051 19.024 1.318 10.733 11.984 18.258 23.82 16.804s20.37-11.335 19.052-22.073zm-10.716 2.58c2.34 4.883-.687 9.444-5.318 11.665-6.056 2.905-11.705.179-14.454-5.557-2.92-6.09-2.951-13.924 3.93-17.224 2.615-1.263 8.038-2.235 9.667 1.151a3.041 3.041 0 0 1-1.29 4.17c-1.355.65-3.136.587-3.873-.949a2.338 2.338 0 0 1 .632-2.887l-.104-.214a8.111 8.111 0 0 0-3.367.651c-4.592 2.226-2.93 7.232-1.312 10.885a8.762 8.762 0 0 1 4.227-4.437c3.961-1.905 9.155-1.678 11.27 2.739zm-5.07 3.133c-1.353-2.815-3.686-3.577-5.969-2.491s-3.151 3.396-1.798 6.211 3.688 3.578 5.97 2.491 3.151-3.4 1.804-6.212z"/></svg>