<svg id="Layer_1" xmlns="http://www.w3.org/2000/svg" width="1200" height="510" viewBox="0 89.5 1200 510"><style>.st0{fill:#fff}</style><path class="st0" d="M596.4 326.3h14.1c2.6 0 3-1.6 3-3v-37.2h7.8c20.8 0 33.5-12.9 33.5-32.2 0-14.2-6.3-20.8-11.9-23.9-6.7-3.7-15.8-4.1-22.4-4.1h-24c-1.3 0-3 .3-3 3v94.3c0 1.6.4 3.1 2.9 3.1zm17-84.9h6.5c5.6 0 14.9.1 14.9 13.6 0 14.2-8.4 15.4-16.8 15.4h-4.5v-29zm90.4 78.6c.4 2.3 1.2 4.4 2.5 7 1.2 2.2 2.1 1.9 3.1 1.4l11.9-4.8c.4-.1 1.2-.6 1.2-1.4s-.6-1.8-1.6-4.4c-2.2-5.6-2.2-10.2-2.2-14.5v-28.2c0-2.6-.3-9.2-3.2-14.2-4.4-7.5-12.9-9.3-22-9.3-5.9 0-16.4 1.2-22.4 4-3.7 1.8-3.7 2.3-3.1 4.4l3.1 9.2c.3 1 .6 1.4 1.4 1.4 1 0 2.1-.8 7-2.3 3.6-1.2 8-2.1 11.9-2.1 4.1 0 6.6 1.3 7.9 3 1.9 2.3 1.8 5.8 1.8 7.9v4.5c-8.4-.3-22.1.9-29.2 5.9-3.1 2.2-8.9 7.8-8.9 19 0 13.4 8.5 22.2 21.7 22.2 8.1.1 13.4-2.8 19.1-8.7zm-23.4-14.7c0-9.8 10.3-11.9 20.7-11.8v16.1c-3.2 3.5-7.1 5.6-11 5.6-5.3 0-9.7-4-9.7-9.9zm52-44.5c-.6-1.4-.8-2.2-.8-2.8 0-.4.4-.9 1.3-1.3l11.1-4.5c.9-.3 1.4-.6 1.9-.6 1.2 0 1.8 1.3 2.2 2.1 1.6 3.1 2.8 5.9 3.2 9.6 5.6-7.8 11-11.5 18.6-11.5 4.5 0 8.9 1.4 7.8 4.8l-4.5 12.3c-.1.4-.4 1.3-1.3 1.3-.4 0-.9-.3-2.6-.9-1-.3-1.8-.8-3.2-.8-4 0-8.5 2.3-12 7v49c0 1.6-.1 2.1-2.1 2.1h-14.5c-1.6 0-2.1-.1-2.1-2.1v-44.2c.1-8.6-1-13.9-3-19.5zm80.6 68c8.1 0 17.8-2.2 23.3-5.8 1.2-.8 2.3-1.8 2.3-3.2 0-.4-.1-.8-.4-1.3l-3.6-8.7c-.3-.8-.8-1.2-1.5-1.2-.8 0-2.2.6-4 1.4-2.8 1.3-7.9 3.4-14.6 3.4-12.1 0-16.1-7.6-16.1-18.3h39.4c1.9 0 3.4-.1 3.4-4.7 0-3.7-.1-9.2-1.5-15.4-2.6-11.4-9.2-23.5-27.6-23.5-20.5 0-32 17.4-32 40.6-.5 10.1 1.5 36.7 32.9 36.7zm-2.4-63.6c5.8 0 8.8 3.4 9.9 8.9.3 1.2.8 3.5.6 7.5h-23c.9-9.9 4.2-16.4 12.5-16.4zm99.8 61.1h-14.5c-1.5 0-2.1-.1-2.1-2.1v-45.1c0-5.4-.4-12.3-8.7-12.3-2.8 0-6.8.9-12.4 5.9v51.4c0 1.6-.1 2.1-2.1 2.1h-14.5c-1.6 0-2.1-.1-2.1-2.1v-44.2c0-9.6-.6-14-1.4-17.7-.8-3-1.3-3.5-1.3-4.8 0-.6.1-1.4 1.5-1.9l11.1-3.6c3-1 3.5-.8 4.9 2.6.8 1.8 1.4 4.1 1.9 7 8-8 15.6-10.1 22.5-10.1 13.2 0 18.9 10.2 18.9 21.3v51.4c.4 1.8.2 2.2-1.7 2.2zm59.2-.1c-4.5 1.8-11 2.6-15.8 2.6-19.3 0-19.6-13.6-19.6-28.3v-32.9h-10.3c-1.6 0-2.1-.4-2.1-2.1v-9.6c0-1.2.3-2.2 2.1-2.1h10.3v-18.5c0-2.2 1.2-2.5 2.3-2.6l12.9-1.8c3.7-.6 3.4.9 3.4 2.3v20.5h16.7c3.1 0 2.5 1.4 2.2 3l-1.8 8.7c-.3 1.8-1.4 2.1-2.2 2.1h-14.9v35.4c0 4.8-.4 8.9 5.7 8.9 2.1 0 4.1-.3 8-1.9 1.4-.6 2.2-.9 2.8-.9.4 0 1 .3 1.2.9l3 12c.5 2.4-.4 3-3.9 4.3zm14.4-2.8V229c0-2.6 1.6-3 3-3h14.1c2.6 0 3 1.6 3 3v79.7h35.5c.8 0 2.2.1 2.3 1.6v.3c0 1-.1 1.4-.3 1.9l-2.8 11.1c-.6 2.1-.9 2.6-3.2 2.6H987c-2.7.1-3-1.4-3-2.8zm67.3-91c0-6.6 5.4-12 12-12s12 5.4 12 12-5.4 12-12 12c-6.5 0-12-5.4-12-12zm-10.4 33.2V256c0-1.6.4-2.1 2.1-2.1h27.8c1.9 0 2.1.4 2.1 2.1v68.2c0 1.9-.4 2.1-2.1 2.1h-14.5c-1.9 0-2.1-.4-2.1-2.1v-56.6H1043c-1.7.1-2.1-.3-2.1-2zm95.8-38.6l-2.6 10.2c-.3.9-.6 1.4-1.4 1.4-.4 0-.9-.3-1.6-.6-3.6-1.6-6.6-1.9-8.8-1.9-8 0-7.9 6.3-7.9 11v6.8h16.7c3.1 0 2.5 1.4 2.2 3l-2.1 8.7c-.4 1.8-1.3 2.1-2.2 2.1h-14.6v56.7c0 1.9-.4 2.1-2.1 2.1H1098c-1.9 0-2.1-.4-2.1-2.1v-56.6h-11.5c-1.6 0-2.1-.4-2.1-2.1V256c0-1.6.4-2.1 2.1-2.1h11.4V248c0-11.2 2.5-27.6 23.9-27.6 3.5 0 8.1.4 14 2.5 4.2 1.6 3.3 3.3 3 4.1zm60.9 63.5c0-3.7-.1-9.2-1.5-15.4-2.6-11.4-9.2-23.5-27.6-23.5-20.5 0-32 17.4-32 40.6 0 10.1 2.1 36.7 33.3 36.7 8.1 0 17.8-2.2 23.3-5.8 1.2-.8 2.3-1.8 2.3-3.2 0-.4-.1-.8-.4-1.3l-3.6-8.7c-.3-.8-.8-1.2-1.6-1.2-.9 0-2.2.6-4 1.4-2.8 1.3-7.9 3.4-14.6 3.4-12.1 0-16.2-7.6-16.2-18.3h39.4c1.6 0 3.2-.1 3.2-4.7zm-19.8-8.9h-23c.9-9.9 4.1-16.4 12.4-16.4 5.8 0 8.8 3.4 9.9 8.9.5 1.2.9 3.5.7 7.5zm-516.4 82.8v95.9c0 2.2-1.5 2.2-2.2 2.2h-11.1c-1.6 0-2.3-1.2-2.8-2.1l-26.7-49.9c-2.6-4.9-5.8-10.9-8.4-19.9h-.3c.3 3.7.4 12 .4 16.1v53.5c0 .6 0 2.2-2.2 2.2h-12.4c-.6 0-2.2 0-2.2-2.2v-95.9c0-.6 0-2.2 2.2-2.2h13.6c1 0 1.4-.3 2.6 1.9l24.2 45.3c4.8 9 8 19.5 8.7 21.2h.3c-.1-5.6-.4-14.1-.4-19v-47.3c0-2.2 1.5-2.2 2.2-2.2h12.4c.4.2 2.1.2 2.1 2.4zm47.2 23.3c-20.5 0-32 17.4-32 40.6 0 10.1 2.1 36.7 33.3 36.7 8.1 0 17.8-2.2 23.3-5.8 1.2-.8 2.3-1.8 2.3-3.2 0-.4-.1-.8-.4-1.3l-3.6-8.7c-.3-.8-.8-1.2-1.6-1.2s-2.2.6-4 1.4c-2.8 1.3-7.9 3.4-14.6 3.4-12.1 0-16.2-7.6-16.2-18.3h39.4c1.9 0 3.4-.1 3.4-4.7 0-3.7-.1-9.2-1.6-15.4-2.7-11.4-9.2-23.5-27.7-23.5zm9.5 30h-23c.9-9.9 4.1-16.4 12.4-16.4 5.8 0 8.8 3.4 9.9 8.9.4 1.1.9 3.5.7 7.5zm77.3 40.5c.6 2.2-.3 2.7-3.7 4.1-4.5 1.8-11 2.6-15.8 2.6-19.3 0-19.6-13.6-19.6-28.3v-32.9H746c-1.6 0-2.1-.4-2.1-2.1V392c0-1.2.3-2.2 2.1-2.1h10.3v-18.5c0-2.2 1.2-2.5 2.3-2.6l12.9-1.8c3.7-.6 3.4.9 3.4 2.3V390h16.7c3.1 0 2.5 1.4 2.2 3l-1.8 8.7c-.3 1.8-1.4 2.1-2.2 2.1h-14.9v35.4c0 4.8-.4 8.9 5.7 8.9 2.1 0 4.1-.3 8-1.9 1.4-.6 2.2-.9 2.7-.9.4 0 1 .3 1.2.9l2.9 12zm98.1-66.2c0 .6-.3 1.2-.8 2.5l-20.3 67.3c-.6 1.8-.9 2.1-2.2 2.1h-12.3c-1.9 0-2.2-1.8-2.3-2.3l-7.1-37.2c-.6-3-1.6-13.2-1.9-16.4h-.3c-.1 1.3-.4 2.8-.6 4.1-.1 1.2-.3 2.3-.4 3.5-.8 4.4-1 5.3-1.4 7.9l-.1.9-8.8 37.2c-.1.8-.4 2.3-2.6 2.3h-11.9c-1.3 0-1.9-.1-2.3-2.1l-17.6-67.3c-.1-.6-.8-1.8-.8-2.5 0-1.3 1.4-1.4 3.2-1.6l11-1.3c3-.3 3.7-.4 4.4 2.7l6.3 31.7c.8 3.5 2.1 11 3.2 24.7h.3c.9-9.7 1.2-14.9 2.8-22.9l6.7-32.8c.3-1.3.1-2.3 1.9-2.3h14.5c1.2 0 1.8.1 2.2 2.3l6.5 32.8c1.9 9.8 2.6 19.9 2.8 22.9h.3c.4-5.7 1.8-18.1 3.2-24.7l7-31.7c.8-3.2 1.3-3.2 4.4-2.7l9.9 1.3c1.3 0 3.1.1 3.1 1.6zm35.8-4.3c-16.1 0-31.8 11.1-31.8 38.6s15.6 38.6 31.8 38.6c16.2 0 31.8-11.1 31.8-38.6-.1-27.5-15.8-38.6-31.8-38.6zm0 62.5c-11.4 0-12-12.9-12-24s.6-24 12-24 12 12.9 12 24c0 11.2-.7 24-12 24zm87.3-57.7l-4.5 12.3c-.1.4-.4 1.3-1.3 1.3-.4 0-.9-.3-2.6-.9-1-.3-1.8-.8-3.2-.8-4 0-8.5 2.3-12 7v48.8c0 1.5-.1 2.1-2.1 2.1h-14.5c-1.5 0-2.1-.1-2.1-2.1V416c0-8.5-1-13.7-3.1-19.3-.6-1.4-.8-2.2-.8-2.8 0-.4.4-.9 1.3-1.3l11.1-4.5c.9-.3 1.4-.6 1.9-.6 1.2 0 1.8 1.3 2.2 2.1 1.6 3.1 2.8 5.9 3.2 9.6 5.6-7.8 11-11.5 18.6-11.5 4.7 0 9.1 1.4 7.9 4.8zm69.2 61.5c1 1.3 1.2 2.1 1.2 2.5 0 .8-.4 1-.9 1.2l-12.1 6.7c-.9.4-1.3.6-1.5.6-.9 0-1.3-.8-1.9-1.4l-27-35v31.9c0 1.5-.1 2.1-2.1 2.1H1027c-1.6 0-2.1-.1-2.1-2.1v-98.3c0-1.3-.1-2.1 2.8-2.6l13.4-2.8c.4-.1 1.3-.3 1.9.1.6.4.4 1.8.4 2.8v57.9l28.6-28.8c.1-.1 1-1 1.5-1 .8 0 1.3.6 1.9 1l1.8 1.4 6.3 5.2c.8.6.8 1.2.8 1.4 0 .9-.9 1.6-1.3 2.1l-23.6 23.1 26.4 32zM508.3 333.2v169.9c0 52.3-42.4 94.7-94.7 94.7H157.3c-8-21.2-20.2-51.7-30.5-94.1-4.7-19.1-8.5-36.4-11.8-52.1 16 15.1 29.2 21.4 40.1 21.4h.1s42.2 1.7 74.8-74.2l2.7-3.7c.3 29.8 3.7 80 23.8 80 28.6 0 33.7-40.7 37.7-20.7 4 20 20 20 20 20s23 5.4 31.9-31.9c10.3-42.6 30.2-61.1 29.1-49.1-1.2 12-29.1 83.3 18.2 83.3 46.6 0 66.7-22.1 114.9-143.5zM105.6 597.9h-8c-52.3 0-94.7-42.4-94.7-94.7v-44.7c4.1.4 8.7.3 14.1-.5 34.8-5.6 50.4-47.9 59.7-87.6 0 3.4 0 6.7.1 10.3-.1-2.3 6.1 145.4 28.8 217.2zm402.7-410.7v133.2c-60.2 145.7-106.6 162.5-84 92.9 22.9-70.3 26.9-94.8-5.7-99.4s-54.8 69.6-62.3 68c-7.4-1.7 9.2-42.8 12-51.9s20.5-47.9-5.7-58.3c-26.2-10.3-28.6 10.9-42.8 61.1s-22.2 98.7-46.3 101.7c-18 2.1-11-57.1-6.3-87.1 17.1-25.3 87.1-134.2 66-183.1-24.9-57.9-114 11.4-103.2 190.7 0 0-15.6 29.1-36.7 44.2 1.4-43.7-10.2-93.2-31-108.4-23.1-17.1-42.1-5.4-55.6 13.4-5.3-15.2-20.9-24.8-27.3 18.1-7 33.9-32.9 141.5-76.6 132.4V187.3c0-52.3 42.4-94.7 94.7-94.7h315.9c52.4-.1 94.9 42.3 94.9 94.6zM119.7 331.1c19.6-57 38.8 43.3 38.8 43.3s15.6 71.6-14.5 60.3c-30-11.3-37.1-66.5-24.3-103.6zm155.4-33.8c2.3-19.5 20.8-102.5 35.4-93.8 14.5 8.6-35.4 93.8-35.4 93.8z"/></svg>