<svg xmlns="http://www.w3.org/2000/svg" viewBox="2202.1 -537.922 75.456 31.922"><defs><style>.a{fill:#4bafe3}</style></defs><path class="a" d="M2239.589-523.149h.887c.163 0 .184-.1.184-.184v-2.347h.49a1.941 1.941 0 0 0 2.116-2.033 1.562 1.562 0 0 0-.748-1.506 2.98 2.98 0 0 0-1.413-.259h-1.515c-.082 0-.184.019-.184.184v5.957c-.006.086.016.188.183.188zm1.071-5.359h.408c.351 0 .943.009.943.859 0 .9-.526.97-1.061.97h-.286zm5.712 4.962a1.615 1.615 0 0 0 .158.443c.074.139.129.12.194.092l.748-.305a.1.1 0 0 0 .074-.092 1.3 1.3 0 0 0-.1-.277 2.3 2.3 0 0 1-.139-.915v-1.782a1.914 1.914 0 0 0-.2-.9 1.483 1.483 0 0 0-1.387-.592 4.005 4.005 0 0 0-1.413.25c-.24.111-.24.148-.194.277l.194.582c.019.064.037.092.092.092a4.087 4.087 0 0 0 .444-.148 2.593 2.593 0 0 1 .748-.13.611.611 0 0 1 .5.184.788.788 0 0 1 .111.5v.291a3.454 3.454 0 0 0-1.848.379 1.405 1.405 0 0 0-.563 1.2 1.3 1.3 0 0 0 1.368 1.4 1.558 1.558 0 0 0 1.216-.557zm-1.481-.934c0-.619.653-.748 1.306-.739v1.017a.973.973 0 0 1-.693.351.6.6 0 0 1-.613-.628zm3.284-2.809a.48.48 0 0 1-.046-.175q0-.042.082-.082l.7-.286a.531.531 0 0 1 .12-.037c.073 0 .111.082.139.13a1.713 1.713 0 0 1 .2.6 1.4 1.4 0 0 1 1.173-.73c.286 0 .564.092.49.305l-.286.774c-.009.028-.028.082-.082.082a.993.993 0 0 1-.163-.055.6.6 0 0 0-.2-.047.992.992 0 0 0-.757.444v3.085c0 .1-.009.129-.13.129h-.915c-.1 0-.13-.009-.13-.129v-2.788a3.229 3.229 0 0 0-.194-1.219zm5.087 4.3a2.908 2.908 0 0 0 1.469-.37.258.258 0 0 0 .148-.2.177.177 0 0 0-.028-.082l-.231-.545a.1.1 0 0 0-.1-.074.7.7 0 0 0-.25.092 2.147 2.147 0 0 1-.924.212c-.767 0-1.016-.481-1.016-1.155h2.486c.12 0 .212-.009.212-.3a4.1 4.1 0 0 0-.1-.969 1.679 1.679 0 0 0-1.746-1.488c-1.293 0-2.023 1.1-2.023 2.559a2.035 2.035 0 0 0 2.106 2.318zm-.148-4.019a.6.6 0 0 1 .628.564 1.683 1.683 0 0 1 .037.471h-1.45c.055-.628.259-1.035.786-1.035zm6.306 3.862h-.914c-.1 0-.13-.009-.13-.129v-2.846c0-.342-.028-.776-.545-.776a1.147 1.147 0 0 0-.785.379v3.241c0 .1-.009.129-.129.129H2256c-.1 0-.129-.009-.129-.129v-2.788a4.677 4.677 0 0 0-.092-1.118 1.652 1.652 0 0 1-.082-.305c0-.037.009-.092.1-.12l.7-.231c.184-.064.222-.047.314.163a1.879 1.879 0 0 1 .12.443 1.92 1.92 0 0 1 1.423-.637 1.2 1.2 0 0 1 1.191 1.349v3.245c0 .1-.011.131-.131.131zm3.736-.009a3.056 3.056 0 0 1-1 .163c-1.22 0-1.238-.859-1.238-1.783v-2.075h-.653c-.1 0-.129-.028-.129-.13v-.6c0-.074.018-.139.129-.13h.653v-1.164c0-.139.074-.157.148-.163l.816-.111c.241-.037.213.055.213.148v1.293h1.049c.194 0 .157.092.139.184l-.111.545a.135.135 0 0 1-.139.13h-.933v2.236c0 .305-.028.564.36.564a1.239 1.239 0 0 0 .508-.12.572.572 0 0 1 .175-.055.082.082 0 0 1 .074.055l.184.757c.033.13-.022.169-.244.252zm.912-.175v-5.962c0-.163.1-.184.184-.184h.887c.163 0 .184.1.184.184v5.032h2.245c.047 0 .139.009.148.1v.019a.32.32 0 0 1-.018.12l-.175.7c-.037.129-.055.163-.2.163h-3.067c-.166 0-.184-.1-.184-.18zm4.256-5.747a.757.757 0 1 1 .758.757.757.757 0 0 1-.758-.757zm-.665 2.1v-.6c0-.1.028-.13.129-.13h1.755c.12 0 .129.028.129.13v4.3c0 .12-.028.129-.129.129h-.914c-.12 0-.129-.028-.129-.129v-3.573h-.712c-.1 0-.129-.028-.129-.13zm6.057-2.439l-.163.647c-.019.055-.037.092-.092.092a.343.343 0 0 1-.1-.037 1.333 1.333 0 0 0-.554-.12c-.508 0-.5.4-.5.693v.434h1.054c.194 0 .157.092.139.184l-.13.545c-.028.111-.082.13-.139.13h-.931v3.573c0 .12-.028.129-.13.129h-.915c-.12 0-.13-.028-.13-.129v-3.573h-.719c-.1 0-.129-.028-.129-.13v-.6c0-.1.028-.13.129-.13h.721v-.381c0-.712.157-1.746 1.506-1.746a2.548 2.548 0 0 1 .878.157c.275.105.219.206.2.262zm3.835 4.01a4.1 4.1 0 0 0-.1-.97 1.679 1.679 0 0 0-1.746-1.488c-1.293 0-2.023 1.1-2.023 2.559a2.037 2.037 0 0 0 2.106 2.319 2.908 2.908 0 0 0 1.469-.37.258.258 0 0 0 .148-.2.176.176 0 0 0-.028-.082l-.231-.545a.1.1 0 0 0-.1-.074.7.7 0 0 0-.25.092 2.146 2.146 0 0 1-.924.212c-.767 0-1.016-.481-1.016-1.155h2.492c.117 0 .209-.01.209-.3zm-1.243-.561h-1.451c.055-.628.259-1.035.785-1.035a.6.6 0 0 1 .628.564 1.684 1.684 0 0 1 .039.464zm-32.619 5.229v6.052a.122.122 0 0 1-.139.139h-.7a.194.194 0 0 1-.175-.13l-1.691-3.151a5.624 5.624 0 0 1-.526-1.257h-.019c.019.24.028.757.028 1.016v3.382a.122.122 0 0 1-.139.139h-.785a.122.122 0 0 1-.139-.139v-6.051a.122.122 0 0 1 .139-.139h.859c.064 0 .092-.019.163.12l1.529 2.864a8.733 8.733 0 0 1 .545 1.34h.019c-.009-.352-.028-.887-.028-1.2v-2.984a.122.122 0 0 1 .139-.139h.785a.122.122 0 0 1 .136.139zm2.982 1.469c-1.293 0-2.023 1.1-2.023 2.559a2.037 2.037 0 0 0 2.106 2.319 2.908 2.908 0 0 0 1.469-.37.258.258 0 0 0 .148-.2.176.176 0 0 0-.028-.082l-.231-.545a.1.1 0 0 0-.1-.073.7.7 0 0 0-.25.092 2.145 2.145 0 0 1-.924.212c-.767 0-1.016-.481-1.016-1.155h2.485c.12 0 .212-.009.212-.3a4.1 4.1 0 0 0-.1-.97 1.681 1.681 0 0 0-1.747-1.493zm.6 1.894h-1.451c.055-.628.259-1.035.785-1.035a.6.6 0 0 1 .628.564 1.687 1.687 0 0 1 .04.465zm4.882 2.559c.037.139-.019.175-.241.259a3.057 3.057 0 0 1-1 .163c-1.22 0-1.238-.859-1.238-1.783v-2.076h-.653c-.1 0-.129-.028-.129-.13v-.6c0-.074.019-.139.129-.13h.653v-1.169c0-.139.074-.157.148-.163l.816-.111c.241-.037.213.055.213.148v1.29h1.054c.194 0 .157.092.139.184l-.111.545a.135.135 0 0 1-.139.13h-.946v2.236c0 .305-.028.564.36.564a1.241 1.241 0 0 0 .508-.12.571.571 0 0 1 .175-.055.082.082 0 0 1 .074.055zm6.2-4.185a.627.627 0 0 1-.047.157l-1.284 4.25c-.037.111-.055.13-.139.13h-.776c-.12 0-.139-.111-.148-.148l-.453-2.347c-.037-.184-.1-.832-.12-1.035h-.019c-.009.082-.028.175-.037.259s-.019.148-.028.221c-.047.277-.064.333-.092.5l-.009.055-.554 2.347a.155.155 0 0 1-.163.148h-.748c-.082 0-.12-.009-.148-.13l-1.109-4.25a.8.8 0 0 1-.046-.157c0-.082.092-.092.2-.1l.693-.082c.184-.019.24-.028.277.175l.4 2a13.35 13.35 0 0 1 .2 1.561h.019a11.927 11.927 0 0 1 .175-1.441l.419-2.07c.018-.082.009-.148.12-.148h.915c.073 0 .111.009.139.148l.408 2.069a11.62 11.62 0 0 1 .175 1.441h.019a14.439 14.439 0 0 1 .2-1.561l.443-2c.047-.2.082-.2.277-.175l.628.082c.081.011.2.02.2.1zm2.254-.268c-1.016 0-2.005.7-2.005 2.439s.988 2.439 2.005 2.439 2.005-.7 2.005-2.439-.991-2.438-2.007-2.438zm0 3.955c-.721 0-.758-.816-.758-1.515s.037-1.515.758-1.515.757.816.757 1.515-.039 1.516-.76 1.516zm5.519-3.649l-.288.777c-.009.028-.028.082-.082.082a1 1 0 0 1-.163-.055.6.6 0 0 0-.2-.047.993.993 0 0 0-.757.443v3.086c0 .1-.009.13-.129.13h-.92c-.1 0-.13-.009-.13-.13v-2.788a3.237 3.237 0 0 0-.194-1.22.481.481 0 0 1-.046-.175c0-.028.028-.055.082-.082l.7-.286a.534.534 0 0 1 .12-.038c.073 0 .111.082.139.13a1.714 1.714 0 0 1 .2.6 1.4 1.4 0 0 1 1.173-.73c.286 0 .565.091.49.3zm4.372 3.88a.263.263 0 0 1 .074.157.072.072 0 0 1-.055.074l-.767.425a.267.267 0 0 1-.1.037c-.055 0-.082-.046-.12-.092l-1.71-2.208v2.014c0 .1-.009.13-.13.13h-.917c-.1 0-.13-.009-.13-.13v-6.216c0-.082-.009-.129.175-.163l.849-.175a.139.139 0 0 1 .12.009c.037.028.028.111.028.175v3.658l1.8-1.82c.009-.009.064-.064.1-.064s.082.038.12.064l.111.092.4.326a.106.106 0 0 1 .047.092c0 .055-.055.1-.082.13l-1.5 1.46zm-36.477-7.624v10.729a5.985 5.985 0 0 1-5.986 5.986h-16.182a46.568 46.568 0 0 1-1.927-5.942 76.17 76.17 0 0 1-.74-3.288 3.978 3.978 0 0 0 2.53 1.353h.006s2.665.11 4.721-4.686l.175-.239c.017 1.888.235 5.051 1.5 5.051 1.8 0 2.127-2.571 2.38-1.306a1.376 1.376 0 0 0 1.262 1.262s1.449.339 2.02-2.019c.653-2.693 1.911-3.859 1.839-3.1s-1.84 5.263 1.153 5.263c2.935 0 4.207-1.391 7.247-9.064zm-25.433 16.705h-.5a5.986 5.986 0 0 1-5.986-5.986v-2.814a3.53 3.53 0 0 0 .893-.034c2.191-.348 3.183-3.024 3.77-5.53 0 .212 0 .428.006.653-.011-.152.379 9.182 1.817 13.711zm25.432-25.935v8.409c-3.805 9.2-6.729 10.263-5.3 5.87 1.443-4.436 1.695-5.986-.361-6.275s-3.458 4.4-3.927 4.292.577-2.7.757-3.281 1.3-3.029-.361-3.678-1.8.685-2.7 3.859-1.414 6.239-2.928 6.421c-1.133.135-.691-3.609-.4-5.5 1.074-1.6 5.5-8.478 4.168-11.561-1.583-3.655-7.212.721-6.528 12.044a9.593 9.593 0 0 1-2.32 2.793c.086-2.754-.645-5.884-1.959-6.851-1.459-1.076-2.658-.343-3.509.846-.338-.961-1.32-1.565-1.723 1.142-.437 2.137-2.074 8.939-4.831 8.362v-16.891a5.985 5.985 0 0 1 5.986-5.986h19.948a5.985 5.985 0 0 1 5.987 5.987zm-24.539 9.085c1.244-3.595 2.448 2.734 2.448 2.734s.984 4.52-.911 3.808-2.35-4.192-1.538-6.54zm9.812-2.134c.143-1.231 1.316-6.468 2.232-5.924s-2.231 5.924-2.231 5.924z"/></svg>